<svg width="16" height="19" viewBox="0 0 16 19" fill="none" xmlns="http://www.w3.org/2000/svg">
<g id="Group 8">
<path id="Vector" d="M0 4.8768H4.8768L4.87693 0H0.000133929L0 4.8768ZM1.53603 1.53607H3.34087V3.3409H1.53603V1.53607Z" fill="#272525"/>
<path id="Vector_2" d="M6.73926 0H15.9937V1.53603H6.73926V0Z" fill="#272525"/>
<path id="Vector_3" d="M6.73926 3.34082H14.1313V4.87685H6.73926V3.34082Z" fill="#272525"/>
<path id="Vector_4" d="M0 11.5584H4.8768L4.87693 6.68164H0.000133929L0 11.5584ZM1.53603 8.21761H3.34087V10.0224H1.53603V8.21761Z" fill="#272525"/>
<path id="Vector_5" d="M6.73926 6.68164H15.9937V8.21767H6.73926V6.68164Z" fill="#272525"/>
<path id="Vector_6" d="M6.73926 10.0225H14.1313V11.5585H6.73926V10.0225Z" fill="#272525"/>
<path id="Vector_7" d="M0 18.24H4.8768L4.87693 13.3632H0.000133929L0 18.24ZM1.53603 14.8991H3.34087V16.704H1.53603V14.8991Z" fill="#272525"/>
<path id="Vector_8" d="M6.73926 13.3632H15.9937V14.8992H6.73926V13.3632Z" fill="#272525"/>
<path id="Vector_9" d="M6.73926 16.704H14.1313V18.24H6.73926V16.704Z" fill="#272525"/>
</g>
</svg>
